# xmcd
#
# Track frame offsets: 
#        150
#        11780
#        24272
#        38704
#        52003
#        63403
#        76782
#        88331
#        101870
#        114262
#        125931
#        137243
#        150861
#        164414
#        177485
#        191844
#        206441
#
# Disc length: 2944 seconds
#
# Revision: 0
# Processed by: cddbd v1.5.2PL0 Copyright (c) Steve Scherf et al.
# Submitted via: ExactAudioCopy v1.0b4
#
DISCID=e90b7e11
DTITLE=Various Artist - Harmonica Blues (1936-49) (LP)
DYEAR=1900
DGENRE=Blues
TTITLE0=Smith And Harper - Smith And Harper - Poor Girl
TTITLE1=Smith And Harper - Smith And Harper - Insurance Policy Blues
TTITLE2=George Clake - George Clake - Prisoner Blues
TTITLE3=George Clake - George Clake - Court-House Blues
TTITLE4=George Clake - George Clake - More Blues
TTITLE5=Rhythm Willie - Rhythm Willie - New Block And Tackle Blues
TTITLE6=Rhythm Willie - Rhythm Willie - Breathin' Blues
TTITLE7=Rhythm Willie - Rhythm Willie - Bedroom Stomp
TTITLE8=Rhythm Willie - Rhythm Willie - Boarding House Blues
TTITLE9=Eddie Kelly - Eddie Kelly - Goin' Back To Alabama
TTITLE10=Eddie Kelly - Eddie Kelly - Blues In The rain
TTITLE11=Eddie Kelly - Eddie Kelly - Poole County Blues
TTITLE12=Eddie Kelly - Eddie Kelly - If You Think I'm Loving You, You'
TTITLE12=re Wrong
TTITLE13=Eddie Kelly - Eddie Kelly - Corina, I'm Goin' Away
TTITLE14=Eddie Kelly - Eddie Kelly - Shim Shaming
TTITLE15=Eddie Kelly - Eddie Kelly - Come On 'Round To My House, Baby 
TTITLE15=Pt 1
TTITLE16=Eddie Kelly - Eddie Kelly - Come On 'Round To My House, Baby 
TTITLE16=Pt 2
EXTD=
EXTT0=
EXTT1=
EXTT2=
EXTT3=
EXTT4=
EXTT5=
EXTT6=
EXTT7=
EXTT8=
EXTT9=
EXTT10=
EXTT11=
EXTT12=
EXTT13=
EXTT14=
EXTT15=
EXTT16=
PLAYORDER=
